<svg version="1.1" id="Layer_1" xmlns="http://www.w3.org/2000/svg" xmlns:xlink="http://www.w3.org/1999/xlink" x="0px" y="0px"
	 width="100%" viewBox="0 0 1024 912" enable-background="new 0 0 1024 912" xml:space="preserve">
<path fill="#000000" opacity="1.000000" stroke="none" 
	d="
M611.063843,861.031799 
	C456.428528,859.068848 302.276215,860.773315 148.128342,860.143494 
	C140.295578,860.111511 132.462341,860.169861 124.629791,860.117432 
	C118.800034,860.078430 117.121407,857.759705 119.197906,852.260864 
	C120.189941,849.633972 121.732056,847.199158 123.154900,844.752930 
	C164.787308,773.178406 206.457153,701.625732 248.076721,630.043762 
	C297.231598,545.501770 346.333923,460.929138 395.480103,376.382019 
	C441.863312,296.588074 488.275909,216.811188 534.670898,137.024094 
	C544.301758,120.461548 553.926331,103.895302 563.524048,87.313530 
	C566.963318,81.371544 566.265564,80.053650 559.446533,80.060440 
	C531.448975,80.088333 503.433472,79.591629 475.458008,80.418633 
	C433.124390,81.670074 391.165894,86.122932 350.030640,97.090263 
	C294.960999,111.772736 248.805084,140.485046 211.038086,183.061844 
	C191.868973,204.672241 174.631668,227.746170 158.287018,251.497711 
	C154.390259,257.160339 150.467133,257.103455 145.460449,255.123520 
	C140.303619,253.084244 139.144485,249.937195 141.423218,244.924164 
	C163.480835,196.398941 185.384949,147.807678 205.097595,98.263893 
	C213.409256,77.374214 221.577759,56.428371 228.888077,35.166199 
	C230.250076,31.204777 232.140259,29.720154 236.432861,29.883690 
	C409.847504,36.490276 583.334290,31.548088 756.782227,33.056900 
	C758.448730,33.071396 760.115417,33.062416 761.781921,33.073261 
	C769.751770,33.125145 771.955444,36.945194 767.817688,44.153584 
	C756.123291,64.526405 744.286438,84.817474 732.489258,105.131180 
	C691.744751,175.289810 651.015076,245.457047 610.237366,315.596375 
	C579.170654,369.032349 548.004395,422.410492 516.946106,475.851349 
	C479.191071,540.815063 441.522827,605.829163 403.778748,670.799255 
	C377.918213,715.313782 351.988159,759.787842 326.105347,804.289490 
	C324.454956,807.127014 322.944183,810.045776 321.467834,812.745117 
	C323.465454,815.284058 325.786072,814.690979 327.851471,814.691711 
	C360.349548,814.702454 392.873383,815.473145 425.339630,814.442078 
	C473.485596,812.912964 521.270142,808.053345 567.831665,794.497742 
	C626.584656,777.392700 676.447266,746.220154 717.871704,701.273010 
	C735.983948,681.620483 752.262146,660.555847 767.484070,638.632385 
	C770.927307,633.673279 774.567505,632.581055 779.381470,634.875366 
	C784.566223,637.346436 785.743652,640.409546 783.295898,645.596191 
	C763.105591,688.378296 743.134277,731.258118 724.776001,774.870361 
	C713.273682,802.195374 701.939819,829.589355 691.602844,857.377808 
	C689.963318,861.785278 687.898132,863.689697 682.971558,863.419128 
	C659.186218,862.112610 635.386841,861.010010 611.063843,861.031799 
M628.385315,110.834503 
	C590.169373,177.060837 551.969482,243.296371 513.733032,309.510864 
	C475.080505,376.445984 436.377106,443.351715 397.722534,510.285583 
	C340.239349,609.822876 282.776672,709.371948 225.337082,808.934326 
	C224.464920,810.446106 222.992523,811.798157 223.353485,814.120605 
	C228.058380,815.297546 232.880676,814.413818 237.627167,814.743958 
	C240.696899,814.957458 242.500153,813.662964 243.983490,811.014465 
	C249.030106,802.003967 254.288254,793.112061 259.457733,784.170288 
	C292.892059,726.338135 326.325439,668.505493 359.756866,610.671692 
	C388.018799,561.780823 416.268341,512.882751 444.540405,463.997742 
	C473.313110,414.246918 502.127289,364.520142 530.885559,314.761017 
	C564.394592,256.781891 597.861145,198.778290 631.349182,140.787048 
	C641.929565,122.464973 652.547913,104.164658 663.085266,85.817886 
	C665.612000,81.418541 664.954346,80.346184 659.860535,80.125252 
	C657.032349,80.002594 654.181335,80.243912 651.366821,80.008362 
	C647.776794,79.707893 645.578735,81.000381 643.790283,84.261269 
	C638.985535,93.021690 633.796814,101.571526 628.385315,110.834503 
z"/>
</svg>